<?xml version="1.0" encoding="utf-8"?>
<!-- Generator: Adobe Illustrator 27.0.0, SVG Export Plug-In . SVG Version: 6.00 Build 0)  -->
<svg version="1.1" id="레이어_1" xmlns="http://www.w3.org/2000/svg" xmlns:xlink="http://www.w3.org/1999/xlink" x="0px"
	 y="0px" viewBox="0 0 809 489.5" style="enable-background:new 0 0 809 489.5;" xml:space="preserve">
<style type="text/css">
	.st0{fill:#FFFFFF;}
	.st1{fill:#121212;}
	.st2{fill:#F9A0BD;}
	.st3{fill:#EDB964;}
	.st4{fill:#BB86FC;}
</style>
<g>
	<g>
		<path class="st0" d="M45.76,407.05c1.6,0,2.93,0.54,3.98,1.63c1.05,1.09,1.58,2.38,1.58,3.86v3.07c0,1.3-0.23,2.53-0.69,3.68
			c-0.46,1.15-1.13,2.14-1.99,2.98c-0.87,0.84-1.85,1.49-2.96,1.96s-2.32,0.7-3.61,0.7H18.71v12.97h22.88
			c1.54,0,2.86,0.56,3.94,1.67c1.08,1.11,1.62,2.41,1.62,3.89v3.06c0,1.3-0.25,2.5-0.74,3.61c-0.5,1.11-1.16,2.1-1.99,2.96
			c-0.83,0.87-1.81,1.53-2.92,1.99c-1.11,0.46-2.32,0.69-3.61,0.69H18.71v33.62H0.83v-82.35H45.76z"/>
		<path class="st0" d="M102.97,407.05c1.6,0,2.93,0.54,3.98,1.63c1.05,1.09,1.58,2.38,1.58,3.86v3.07c0,1.3-0.23,2.53-0.69,3.68
			c-0.46,1.15-1.13,2.14-1.99,2.98c-0.87,0.84-1.85,1.49-2.96,1.96s-2.32,0.7-3.61,0.7H75.93v12.97h22.88
			c1.54,0,2.86,0.56,3.94,1.67c1.08,1.11,1.62,2.41,1.62,3.89v3.06c0,1.3-0.25,2.5-0.74,3.61c-0.5,1.11-1.16,2.1-1.99,2.96
			c-0.83,0.87-1.81,1.53-2.92,1.99c-1.11,0.46-2.32,0.69-3.61,0.69H75.93v33.62H58.05v-82.35H102.97z"/>
		<path class="st0" d="M161.33,447.8l26.31,41.59h-21.12l-15.66-24.83l-12.32,19.36l0.09-0.09c-1.17,1.85-2.59,3.24-4.26,4.17
			c-1.67,0.93-3.55,1.39-5.65,1.39h-4.82c-1.17,0-2.18-0.28-3.01-0.83c-0.83-0.56-1.47-1.27-1.9-2.13c-0.43-0.87-0.63-1.79-0.6-2.78
			c0.03-0.99,0.38-1.92,1.06-2.78l-0.09,0.18l20.93-33.25l-10.1-15.93l-15.65-24.73h21.12l15.19,23.99l1.02-1.58
			c2.28-3.58,4.66-7.36,7.13-11.35c2.47-3.98,4.82-7.67,7.04-11.07h21.03L161.33,447.8z"/>
		<path class="st0" d="M193.81,407.14h17.88v72.99c0,2.72-0.9,4.94-2.69,6.67c-1.79,1.73-3.98,2.59-6.58,2.59h-3.06
			c-1.54,0-2.86-0.56-3.94-1.67c-1.08-1.11-1.62-2.38-1.62-3.8V407.14z"/>
		<path class="st0" d="M250.46,449.01c2.41-6.85,4.86-13.86,7.36-21.03c2.5-7.16,4.92-14.11,7.27-20.84h18.62l-25.75,75.96
			l0.09-0.19c-0.62,1.98-1.65,3.43-3.1,4.35c-1.45,0.93-2.98,1.39-4.58,1.39c-1.61,0-3.17-0.48-4.68-1.44
			c-1.51-0.96-2.58-2.36-3.2-4.21l-24.18-75.86h18.62L250.46,449.01z"/>
		<path class="st0" d="M355.92,444.66c2.28,2.29,4.05,4.93,5.31,7.92c1.26,3,1.89,6.16,1.89,9.49c0,3.27-0.63,6.41-1.89,9.4
			c-1.26,2.99-3.04,5.67-5.31,8.01c-2.34,2.28-5.01,4.06-7.99,5.33c-2.99,1.26-6.12,1.9-9.38,1.9h-20.16
			c-0.37,0-0.69-0.14-0.97-0.42c-0.28-0.28-0.42-0.61-0.42-0.98v-3.46c0-1.5,0.54-2.79,1.62-3.88c1.08-1.09,2.33-1.64,3.75-1.64
			h16.16v0.09c1.97,0,3.83-0.39,5.59-1.15c1.75-0.77,3.26-1.8,4.53-3.09c1.26-1.29,2.28-2.82,3.05-4.57
			c0.77-1.75,1.16-3.62,1.16-5.59c0-1.97-0.39-3.82-1.16-5.54c-0.77-1.72-1.79-3.25-3.06-4.57c-1.27-1.32-2.78-2.37-4.54-3.14
			c-1.76-0.77-3.63-1.16-5.6-1.16h-5.74c-2.78,0-5.42-0.51-7.92-1.53c-2.5-1.02-4.74-2.52-6.72-4.5c-1.98-1.98-3.47-4.23-4.49-6.73
			c-1.02-2.51-1.53-5.18-1.53-8.03c0-2.72,0.51-5.34,1.54-7.84s2.54-4.75,4.53-6.73c4.04-4.02,8.93-6.03,14.67-6.03h22.88
			c0.43,0,0.79,0.14,1.07,0.42c0.28,0.28,0.42,0.61,0.42,0.98v3.37c0,1.56-0.54,2.87-1.62,3.93c-1.08,1.06-2.39,1.59-3.94,1.59
			h-18.8c-1.42,0-2.76,0.26-4.03,0.79c-1.27,0.53-2.38,1.27-3.33,2.22c-0.96,0.96-1.71,2.08-2.27,3.38s-0.83,2.62-0.83,3.98
			c0,1.48,0.28,2.86,0.83,4.12c0.55,1.27,1.31,2.36,2.26,3.29c0.96,0.93,2.06,1.67,3.33,2.22c1.26,0.56,2.6,0.83,4.02,0.83h5.73
			c3.27,0,6.39,0.63,9.38,1.9C350.92,440.5,353.58,442.31,355.92,444.66z"/>
		<path class="st0" d="M370.51,485.32v-79.01h10.28v74.94c0,1.54-0.53,2.84-1.59,3.89c-1.06,1.05-2.37,1.57-3.92,1.57h-3.37
			c-0.44,0-0.78-0.14-1.03-0.42C370.63,486.01,370.51,485.69,370.51,485.32z"/>
		<path class="st0" d="M451.8,406.31h9.63v74.94c0,1.54-0.54,2.84-1.62,3.89c-1.08,1.05-2.39,1.57-3.94,1.57h-3.24
			c-0.43,0-0.79-0.14-1.07-0.42c-0.28-0.28-0.42-0.6-0.42-0.97v-61.41l-23.02,30.2c-0.8,1.05-1.82,1.58-3.05,1.58
			c-1.23,0-2.25-0.52-3.05-1.58L399,423.91v61.41c0,0.37-0.16,0.7-0.47,0.97c-0.31,0.28-0.62,0.42-0.93,0.42h-8.88v-80.4h9.63
			l0.65,0.74l26.03,34.27l26.12-34.27L451.8,406.31z"/>
		<path class="st0" d="M469.36,485.32v-79.01h10.28v74.94c0,1.54-0.53,2.84-1.59,3.89c-1.06,1.05-2.37,1.57-3.92,1.57h-3.37
			c-0.44,0-0.78-0.14-1.03-0.42C469.48,486.01,469.36,485.69,469.36,485.32z M513.64,439.84v-33.53h10.28v74.94
			c0,1.54-0.54,2.84-1.62,3.89c-1.08,1.05-2.39,1.57-3.94,1.57h-3.33c-0.37,0-0.69-0.14-0.97-0.42c-0.28-0.28-0.42-0.6-0.42-0.97
			v-35.2h-29.92c-0.37,0-0.7-0.14-0.97-0.42c-0.28-0.28-0.42-0.63-0.42-1.07v-3.33c0-1.48,0.52-2.76,1.58-3.84
			c1.05-1.08,2.38-1.62,3.98-1.62H513.64z"/>
		<path class="st0" d="M576.12,406.31c0.37,0,0.7,0.14,0.97,0.42c0.28,0.28,0.42,0.6,0.42,0.97v3.33c0,1.54-0.54,2.86-1.62,3.94
			c-1.08,1.08-2.39,1.62-3.94,1.62h-30.01v23.25h29.55c0.37,0,0.69,0.14,0.97,0.42c0.28,0.28,0.42,0.6,0.42,0.97v3.43
			c0,1.48-0.53,2.76-1.57,3.84c-1.05,1.08-2.35,1.62-3.89,1.62h-25.47v26.31h34.18c0.37,0,0.7,0.14,0.97,0.42
			c0.28,0.28,0.42,0.63,0.42,1.07v3.33c0,1.54-0.54,2.84-1.62,3.89c-1.08,1.05-2.39,1.57-3.94,1.57h-32.33c-2.16,0-4-0.77-5.51-2.32
			c-1.51-1.54-2.27-3.4-2.27-5.56v-72.53H576.12z"/>
		<path class="st0" d="M629.3,476.43c0.99,0,1.48,0.49,1.48,1.48v3.33c0,1.54-0.54,2.84-1.62,3.89c-1.08,1.05-2.39,1.57-3.94,1.57
			h-40.29V407.7c0-0.37,0.12-0.7,0.37-0.97c0.25-0.28,0.59-0.42,1.03-0.42h3.37c1.56,0,2.87,0.51,3.92,1.53s1.59,2.3,1.59,3.84
			v64.75H629.3z"/>
		<path class="st0" d="M685.44,414.09c2.59,2.53,4.57,5.4,5.93,8.61c1.36,3.21,2.04,6.64,2.04,10.28c0,3.52-0.68,6.9-2.04,10.14
			c-1.36,3.24-3.33,6.13-5.93,8.66c-2.53,2.53-5.4,4.48-8.61,5.83c-3.21,1.36-6.61,2.04-10.19,2.04h-14.17
			c-0.37,0-0.7-0.14-0.97-0.42c-0.28-0.28-0.42-0.63-0.42-1.06v-3.33c0-1.48,0.52-2.76,1.58-3.84c1.05-1.08,2.35-1.62,3.89-1.62
			h10.1c2.28,0,4.42-0.43,6.39-1.3c1.98-0.86,3.72-2.04,5.23-3.52c1.51-1.48,2.7-3.23,3.57-5.23c0.86-2.01,1.3-4.12,1.3-6.34
			c0-2.28-0.43-4.43-1.29-6.44c-0.86-2.01-2.05-3.77-3.56-5.28c-1.51-1.51-3.25-2.69-5.22-3.52c-1.97-0.83-4.1-1.25-6.37-1.25v0.09
			h-18.29v70.12h-10.28V407.7c0-0.37,0.12-0.7,0.37-0.97c0.25-0.28,0.56-0.42,0.93-0.42h27.23c3.58,0,6.98,0.65,10.19,1.95
			C680.04,409.55,682.91,411.49,685.44,414.09z"/>
		<path class="st0" d="M745.06,406.31c0.37,0,0.7,0.14,0.97,0.42c0.28,0.28,0.42,0.6,0.42,0.97v3.33c0,1.54-0.54,2.86-1.62,3.94
			c-1.08,1.08-2.39,1.62-3.94,1.62h-30.01v23.25h29.55c0.37,0,0.69,0.14,0.97,0.42c0.28,0.28,0.42,0.6,0.42,0.97v3.43
			c0,1.48-0.53,2.76-1.57,3.84c-1.05,1.08-2.35,1.62-3.89,1.62h-25.47v26.31h34.18c0.37,0,0.7,0.14,0.97,0.42
			c0.28,0.28,0.42,0.63,0.42,1.07v3.33c0,1.54-0.54,2.84-1.62,3.89c-1.08,1.05-2.39,1.57-3.94,1.57h-32.33c-2.16,0-4-0.77-5.51-2.32
			c-1.51-1.54-2.27-3.4-2.27-5.56v-72.53H745.06z"/>
		<path class="st0" d="M793.14,457.35l14.16,21.3c0.87,1.3,1.14,2.67,0.79,4.12c-0.34,1.45-1.17,2.61-2.48,3.47l-2.8,1.85
			c-0.31,0.25-0.67,0.32-1.07,0.23s-0.73-0.29-0.98-0.6l-18.36-28.07h-14.17c-0.99,0-1.48-0.49-1.48-1.48v-3.33
			c0-1.48,0.54-2.76,1.62-3.84c1.08-1.08,2.39-1.62,3.94-1.62h10c2.28,0,4.43-0.43,6.44-1.3c2.01-0.86,3.77-2.04,5.28-3.52
			c1.51-1.48,2.7-3.23,3.57-5.23c0.86-2.01,1.3-4.12,1.3-6.34c0-2.28-0.43-4.42-1.3-6.39c-0.87-1.98-2.05-3.72-3.57-5.23
			c-1.51-1.51-3.26-2.69-5.23-3.52c-1.98-0.83-4.11-1.25-6.39-1.25h-18.43v70.12h-10.1V407.7c0-0.37,0.11-0.7,0.32-0.97
			c0.22-0.28,0.54-0.42,0.98-0.42h27.28c3.59,0,6.99,0.65,10.21,1.95c3.22,1.3,6.09,3.24,8.63,5.84c2.6,2.53,4.56,5.4,5.89,8.61
			c1.33,3.21,2,6.64,2,10.28c0,3.52-0.67,6.9-2.01,10.14c-1.34,3.24-3.32,6.16-5.93,8.75C798.74,454.23,796.05,456.05,793.14,457.35
			z"/>
	</g>
	<g>
		<g>
			<path class="st0" d="M524.35,309.86l-17.24,3.45c-0.32,0.06-0.63,0.1-0.95,0.1c0,0,0,0,0,0c-0.97,0-1.81-0.3-2.49-0.78
				c0.24,1.17,0.38,2.37,0.41,3.57c4.17,18.17-8.99,34.13-24.12,41.98c-12.94,6.71-28.91,10.71-48.83,12.22
				c-7.52,0.57-15.4,0.86-23.41,0.86c-9.51,0-19.44-0.41-29.51-1.21c-20.03-1.59-35.62-5.36-49.06-11.87
				c-13.88-6.72-27.3-19.96-23.35-36.96c0.06-0.24,0.13-0.46,0.22-0.68c0.02-0.75,0.08-1.5,0.21-2.26c0.14-0.77,0.24-1.53,0.33-2.3
				c-0.72,0.59-1.64,0.98-2.73,0.98c0,0,0,0,0,0c-0.31,0-0.63-0.03-0.94-0.1l-17.24-3.45c-2.19-0.44-3.51-2.22-3.3-4.44
				c0.2-2.07,1.85-4.26,4.5-4.26c0.31,0,0.63,0.03,0.95,0.1l17.23,3.44c0.65,0.13,1.21,0.39,1.69,0.73c-0.07-1.1-0.18-2.21-0.33-3.3
				c-0.06-0.13-0.13-0.26-0.19-0.4c-11.07-28.78-9.22-63.01,4.93-91.73c-10.54-20.76-17.15-43.09-19.63-66.39
				c-0.11-1.06,0.3-2.2,1.13-3.12c0.85-0.94,1.97-1.49,3.07-1.49c0.14,0,0.28,0.01,0.42,0.03c20.48,2.66,39.84,9.05,57.58,19
				c0.87,0.22,1.74,0.43,2.61,0.65c1.03-0.29,2.1-0.49,3.12-0.74c0.42-0.1,0.82-0.16,1.21-0.19c1.13-0.2,2.26-0.37,3.39-0.51
				c14.26-3.05,28.88-4.61,43.47-4.61c12.06,0,24.19,1.07,36.1,3.16c0.52-0.01,1.04,0.02,1.55,0.12c1.3,0.25,2.61,0.48,3.92,0.72
				c0.37,0.04,0.74,0.08,1.11,0.12c0.48,0.01,0.97,0.04,1.45,0.09c1.69-0.79,3.4-1.48,5.11-2.02c17.62-9.8,36.83-16.11,57.14-18.75
				c0.14-0.02,0.28-0.03,0.42-0.03c1.1,0,2.22,0.54,3.07,1.49c0.83,0.92,1.24,2.06,1.13,3.12c-2.48,23.29-9.08,45.63-19.63,66.39
				c14.15,28.72,16,62.95,4.93,91.73c-0.09,0.23-0.19,0.45-0.31,0.66c-0.01,0.02-0.01,0.04-0.02,0.06
				c-0.09,0.81-0.17,1.63-0.26,2.44c0.49-0.37,1.08-0.65,1.76-0.78l17.23-3.44c0.32-0.06,0.64-0.1,0.95-0.1
				c2.65,0,4.3,2.19,4.5,4.26C527.87,307.64,526.54,309.42,524.35,309.86z M527.44,320.31l-13.36-1.58
				c-0.2-0.02-0.39-0.03-0.57-0.03c-2.16,0-3.76,1.57-3.89,3.82c-0.13,2.2,1.27,4.72,4.11,5.06l13.36,1.58
				c0.2,0.02,0.39,0.03,0.57,0.03c2.16,0,3.76-1.57,3.89-3.82C531.68,323.16,530.28,320.64,527.44,320.31z M296.49,322.24
				c-0.18,0-0.37,0.01-0.57,0.03l-13.36,1.58c-2.85,0.34-4.24,2.86-4.11,5.06c0.13,2.25,1.73,3.82,3.89,3.82c0,0,0,0,0,0
				c0.18,0,0.37-0.01,0.57-0.03l13.36-1.58c2.85-0.34,4.24-2.86,4.11-5.06C300.25,323.81,298.65,322.24,296.49,322.24z
				 M400.58,136.73v14.73c0,2.44,1.98,4.42,4.42,4.42s4.42-1.98,4.42-4.42v-14.73c0-2.44-1.98-4.42-4.42-4.42
				S400.58,134.3,400.58,136.73z M405,131.74c35.92,0,65.15-29.23,65.15-65.15S440.92,1.44,405,1.44s-65.15,29.23-65.15,65.15
				S369.08,131.74,405,131.74z"/>
			<path class="st1" d="M375.04,311.17c-15.46-11.72-33.68-20.17-52.69-24.45c-0.35-0.08-0.7-0.12-1.05-0.12
				c-2.57,0-4.19,2.14-4.42,4.15c-0.25,2.23,1.06,4.06,3.24,4.55c18.28,4.11,35.14,11.95,50.14,23.32c0.76,0.58,1.61,0.88,2.45,0.88
				c0,0,0,0,0,0c1.71,0,3.27-1.24,3.89-3.08C377.28,314.46,376.66,312.4,375.04,311.17z"/>
			<path class="st1" d="M493.11,291.35c-0.22-2.01-1.85-4.15-4.42-4.15c-0.34,0-0.7,0.04-1.05,0.12
				c-19.01,4.27-37.23,12.73-52.69,24.45c-1.62,1.23-2.23,3.29-1.57,5.26c0.62,1.84,2.18,3.08,3.88,3.08c0,0,0,0,0,0
				c0.85,0,1.7-0.3,2.46-0.88c14.99-11.37,31.86-19.21,50.14-23.32C492.05,295.41,493.36,293.58,493.11,291.35z"/>
			<ellipse class="st2" cx="405" cy="338.39" rx="12.43" ry="15.31"/>
			<path class="st2" d="M339.69,176.48c-2.31-3.26-19.08-16.01-22.41-18.81c-1.05-0.84-2.35-1.3-3.67-1.3
				c-12.1,0.44-0.72,34.47,2.79,41.43c8.41,8.76,16.2-10.12,23.86-13.51C342.57,182.01,342.5,178.42,339.69,176.48z"/>
			<path class="st2" d="M470.31,175.87c2.31-3.26,19.08-16.01,22.41-18.81c1.05-0.84,2.35-1.3,3.67-1.3
				c12.1,0.44,0.72,34.47-2.79,41.43c-8.41,8.76-16.2-10.12-23.86-13.51C467.43,181.4,467.5,177.81,470.31,175.87z"/>
			<path class="st3" d="M405,12.05c-32.92,0-59.6,26.68-59.6,59.6s26.68,59.6,59.6,59.6s59.6-26.68,59.6-59.6
				S437.92,12.05,405,12.05z M405,60.38c-9.19,0-16.64-7.45-16.64-16.64s7.45-16.64,16.64-16.64s16.64,7.45,16.64,16.64
				S414.19,60.38,405,60.38z"/>
		</g>
		<g>
			<path class="st4" d="M706.76,333.4c-38.72-17.5-75.16-40.02-107.95-67.05c-9.15-5.42-7.13,14.88-8.8,19.59
				c-5.32,24.7-21.21,47.05-41.94,61.29c-3.31,3.44-22.95,8.76-15.55,14.68c1.79,1.81,4.24,0.52,6.27-0.15
				c38.08-23.08,76.19-23.29,113.47,1.63c2.76,1.55,5.77-1,5.14-3.95c-7.55-24.65,30.41-31.44,45.83-20
				C707.3,341.29,710.86,335.26,706.76,333.4z"/>
			<path class="st4" d="M103.24,333.8c38.72-17.5,75.16-40.02,107.95-67.05c9.15-5.42,7.13,14.88,8.8,19.59
				c5.32,24.7,21.21,47.05,41.94,61.29c3.31,3.44,22.95,8.76,15.55,14.68c-1.79,1.81-4.24,0.52-6.27-0.15
				c-38.08-23.08-76.19-23.29-113.47,1.63c-2.76,1.55-5.77-1-5.14-3.95c7.55-24.65-30.41-31.44-45.83-20
				C102.7,341.68,99.14,335.65,103.24,333.8z"/>
		</g>
	</g>
</g>
</svg>
